# xmcd CD database file
#
# Track frame offsets:
#	150
#	6398
#	32225
#	54681
#	76658
#	85318
#	108909
#	126214
#	146526
#	152207
#	175588
#	195856
#	224219
#	248259
#
# Disc length: 3472 seconds
#
# Revision: 2
# Processed by: cddbd v1.5.2PL0 Copyright (c) Steve Scherf et al.
# Submitted via: CDex 1.70beta3
#
DISCID=b40d8e0e
DTITLE=Christian Prommer's Drumlesson - Drum Lesson: Vol.1
DYEAR=2007
DGENRE=Jazz
TTITLE0=Drum Lesson Ⅰ
TTITLE1=Can You Feel It (Original By Mr Fingers Aka Larry Heard )
TTITLE2=Rej (Original By Ame)
TTITLE3=Plastic Dreams (Original By Jay Dee)
TTITLE4=Drum Lesson Ⅱ
TTITLE5=Trans Europa Express (Original By Kraftwerk)
TTITLE6=Elle (Original By DJ Gregory)
TTITLE7=Claire (Original By Patrick Pulsinger )
TTITLE8=Drum Lesson Ⅲ
TTITLE9=Higher State Of Consciousness (Original By Josh Wink)
TTITLE10=Strings Of Life (Original By Derrick May)
TTITLE11=Besu Mot Plage (Original By Isolee)
TTITLE12=Nervous Track (Original By MAW - NUYORICAN SOUL )
TTITLE13=Drum Lesson Ⅳ
EXTD=YEAR: 2007
EXTT0=
EXTT1=
EXTT2=
EXTT3=
EXTT4=
EXTT5=
EXTT6=
EXTT7=
EXTT8=
EXTT9=
EXTT10=
EXTT11=
EXTT12=
EXTT13=
PLAYORDER=
